<?xml version="1.0" encoding="UTF-8" standalone="no"?>
<!-- Created with Inkscape (http://www.inkscape.org/) -->

<svg
   xmlns:dc="http://purl.org/dc/elements/1.1/"
   xmlns:cc="http://creativecommons.org/ns#"
   xmlns:rdf="http://www.w3.org/1999/02/22-rdf-syntax-ns#"
   xmlns:svg="http://www.w3.org/2000/svg"
   xmlns="http://www.w3.org/2000/svg"
   xmlns:sodipodi="http://sodipodi.sourceforge.net/DTD/sodipodi-0.dtd"
   xmlns:inkscape="http://www.inkscape.org/namespaces/inkscape"
   id="svg7384"
   height="16"
   width="16"
   version="1.1"
   inkscape:version="0.48.5 r10040"
   sodipodi:docname="logout-symbolic.svg">
  <defs
     id="defs11" />
  <sodipodi:namedview
     pagecolor="#ffffff"
     bordercolor="#666666"
     borderopacity="1"
     objecttolerance="10"
     gridtolerance="10"
     guidetolerance="10"
     inkscape:pageopacity="0"
     inkscape:pageshadow="2"
     inkscape:window-width="1354"
     inkscape:window-height="716"
     id="namedview9"
     showgrid="true"
     inkscape:snap-global="true"
     inkscape:snap-bbox="true"
     inkscape:bbox-paths="true"
     inkscape:bbox-nodes="true"
     inkscape:snap-bbox-edge-midpoints="true"
     inkscape:snap-bbox-midpoints="false"
     inkscape:object-nodes="false"
     inkscape:zoom="35.732714"
     inkscape:cx="8.0815177"
     inkscape:cy="8.271468"
     inkscape:window-x="0"
     inkscape:window-y="0"
     inkscape:window-maximized="1"
     inkscape:current-layer="layer9">
    <inkscape:grid
       type="xygrid"
       id="grid2990"
       empspacing="5"
       visible="true"
       enabled="true"
       snapvisiblegridlinesonly="true" />
  </sodipodi:namedview>
  <metadata
     id="metadata90">
    <rdf:RDF>
      <cc:Work
         rdf:about="">
        <dc:format>image/svg+xml</dc:format>
        <dc:type
           rdf:resource="http://purl.org/dc/dcmitype/StillImage" />
        <dc:title>Gnome Symbolic Icon Theme</dc:title>
      </cc:Work>
    </rdf:RDF>
  </metadata>
  <title
     id="title9167">Gnome Symbolic Icon Theme</title>
  <g
     id="layer9"
     transform="translate(-181.03 -397)">
    <path
       id="rect4897-9-4"
       style="fill:#bebebe"
       d="m 183.53,398 c -0.29309,0 -0.64673,0.1235 -1,0.4 -0.35327,0.27647 -0.53125,0.68125 -0.53125,1.0375 l 0,10.0315 c 0,0.384 0.12769,0.81517 0.4375,1.125 0.28542,0.28544 0.70914,0.38602 1.0938,0.375 l 0,0.031 -5e-5,0 8,0 c 0,0 0.51187,0.0169 1.096,-0.406 0.404,-0.29249 0.404,-1.094 0.404,-1.094 l 0,-10.062 -2,0.562 0,9 -7,0 5e-5,-9.00031 6.99995,3.1e-4 2,-0.562 c 0,0 -0.20732,-0.74105 -0.5,-1.038 -0.30706,-0.31155 -1,-0.40026 -1,-0.40026 z"
       inkscape:connector-curvature="0"
       sodipodi:nodetypes="ccsssccccsccccccccscc" />
    <path
       id="path3761-2-3-5-4-8-9-8-9-9-0-6"
       style="color:#bebebe;fill:#bebebe"
       d="m 189.03,404 c 5,0 0,0 5,0 l 0,-1 c 3,2 0,0 3,2 -3,2 0,0 -3,2 l 0,-1 c -5,0 0,0 -5,0 l 0,0 c 0,-2 0,0 0,-2 z"
       inkscape:connector-curvature="0"
       sodipodi:nodetypes="ccccccccc" />
    <path
       id="path3761-2-3-5-4-8-9-8-9-9-0-6-2"
       style="color:#bebebe;fill:#bebebe"
       d="m 183.03,399 c 1.33333,1 2.66667,2 4,3 l 0,11 c -4,-3 0,0 -4,-3 0,-11 0,-7.71675 0,-11 z"
       inkscape:connector-curvature="0"
       sodipodi:nodetypes="ccccc" />
  </g>
</svg>
